<?xml version="1.0" encoding="UTF-8"?>
<svg width="1200pt" height="1200pt" version="1.1" viewBox="0 0 1200 1200" xmlns="http://www.w3.org/2000/svg">
 <path d="m60 0h1080c33.137 0 60 33.137 60 60v1080c0 33.137-26.863 60-60 60h-1080c-33.137 0-60-33.137-60-60v-1080c0-33.137 26.863-60 60-60z" fill="#17233d"/>
 <path d="m834.51 903.29h-181.63c-7.9336 0-15.449-0.67969-22.887-2.0977l-0.41797-0.089844c-7.1953-1.3906-14.281-3.5352-21.602-6.4531l-324.88-129.16c-9.1484-3.4531-16.984-9.293-22.859-16.648-5.8555-7.3555-9.7812-16.281-11.121-25.949-1.3398-9.6953 0.019531-19.359 3.6406-28.008 3.6328-8.6484 9.5938-16.371 17.457-22.199 7.8281-5.8125 16.949-9.2656 26.312-10.238 9.0781-0.94531 18.422 0.4375 27.062 4.25l168.76 50.629c1.2305-2.168 2.6172-4.2578 4.1406-6.2305 6.7656-8.7383 16.414-15.309 27.742-18.219 0.9375-0.24219 1.875-0.34766 2.793-0.34766l104.41-0.054688c9.1055 0 17.449-1.0977 25.262-3.3633 7.8711-2.2773 15.523-5.8203 23.152-10.648 12.344-7.8477 25.992-13.434 40.254-16.547 14.039-3.0625 28.742-3.7148 43.441-1.7305 19.379 2.6055 37.578 9.668 53.297 20.289 6.293 4.25 12.211 9.0859 17.664 14.449v-25.367c0-6.2578 5.0781-11.336 11.336-11.336h94.223c6.2578 0 11.336 5.0781 11.336 11.336v260.55c0 6.2578-5.0781 11.336-11.336 11.336h-94.223c-6.2578 0-11.336-5.0781-11.336-11.336v-26.812zm-187.59-356.82c0-6.2578 5.0781-11.336 11.336-11.336 6.2578 0 11.336 5.0781 11.336 11.336v0.097656c0 6.2578-5.0781 11.336-11.336 11.336-6.2578 0-11.336-5.0781-11.336-11.336zm-38.656-145.64c-0.29297 6.2305-5.5977 11.051-11.828 10.754-6.2305-0.29297-11.051-5.5977-10.754-11.828 0.97266-19.344 9.4453-36.613 22.504-49.031 13.066-12.414 30.73-20.031 50.066-20.031 19.332 0 36.996 7.5977 50.074 20.031 13.051 12.406 21.52 29.668 22.504 48.992l0.019531 0.57031c0.027343 26.75-16.172 43.301-32.758 60.25-14.066 14.371-28.492 29.105-28.492 50.207 0 6.2578-5.0781 11.336-11.336 11.336-6.2578 0-11.336-5.0781-11.336-11.336 0-30.25 17.734-48.387 35.043-66.059 13.266-13.559 26.234-26.805 26.234-44.398-0.79297-13.078-6.5977-24.75-15.461-33.176-8.9688-8.5234-21.137-13.746-34.488-13.746-13.344 0-25.512 5.2227-34.48 13.746-8.9961 8.5586-14.844 20.441-15.504 33.711zm49.992-142.26c51.254 0 97.676 20.797 131.28 54.395 33.641 33.648 54.438 80.082 54.438 131.34 0 51.254-20.797 97.676-54.395 131.28-33.648 33.641-80.074 54.438-131.32 54.438-17.781 0-35.008-2.5156-51.332-7.2031-15.539-4.4648-30.277-10.926-43.879-19.074l-76.984 8.5078c-6.2031 0.67969-11.809-3.8008-12.488-10.004-0.13281-1.2305-0.0625-2.4375 0.17969-3.5898l16.164-75.879c-5.375-11.523-9.6133-23.68-12.551-36.273-3.1602-13.602-4.8359-27.742-4.8359-42.203 0-51.262 20.797-97.684 54.395-131.29 33.648-33.641 80.082-54.438 131.34-54.438zm115.31 70.406c-29.492-29.48-70.273-47.734-115.31-47.734-45.039 0-85.832 18.254-115.32 47.734-29.48 29.492-47.734 70.273-47.734 115.32 0 12.801 1.4531 25.215 4.2148 37.059 2.8477 12.227 7.0703 23.93 12.461 34.883 1.1328 2.2305 1.5352 4.8359 0.98047 7.4727l-13.699 64.32 65.246-7.2109c2.4531-0.25781 5.0156 0.26953 7.2656 1.6797 12.711 7.9961 26.652 14.289 41.453 18.539 14.301 4.1055 29.457 6.3125 45.137 6.3125 45.039 0 85.82-18.254 115.31-47.734 29.48-29.492 47.734-70.273 47.734-115.31 0-45.039-18.254-85.832-47.734-115.32zm60.938 402.11c-7.7461-12.789-18.156-23.625-30.32-31.828-12.934-8.7383-27.848-14.531-43.656-16.664-11.969-1.6172-24.039-1.0703-35.641 1.4648-11.621 2.5352-22.777 7.1133-32.91 13.531-9.4062 5.9258-18.957 10.316-29 13.219-10.094 2.9258-20.504 4.3477-31.543 4.3477h-103.03c-5.6875 1.7773-10.531 5.25-14.031 9.7656-3.7656 4.8555-5.9727 10.996-5.9727 17.547 0 6.543 2.2031 12.664 5.9727 17.52 3.4883 4.5156 8.3555 7.9961 14.031 9.7734h110.2c6.2578 0 11.336 5.0781 11.336 11.336 0 6.2578-5.0781 11.336-11.336 11.336h-111.58c-1.4102 0-2.7656-0.25781-4.0156-0.73047-10.809-3.0703-19.992-9.4688-26.52-17.895-6.793-8.7578-10.754-19.699-10.754-31.34 0-1.1602 0.035157-2.3125 0.11719-3.4531l-169.45-50.832-1.5078-0.57031c-5.1055-2.3477-10.676-3.2148-16.066-2.6602-5.3828 0.55469-10.648 2.5547-15.156 5.8984-4.4805 3.3203-7.9102 7.7852-10.016 12.809-2.1055 5.0234-2.9023 10.594-2.1406 16.137 0.76953 5.5625 3.043 10.719 6.4258 14.969 3.3828 4.2383 7.8828 7.5977 13.102 9.5781l325.25 129.32c5.9609 2.375 11.711 4.1055 17.559 5.2383l0.39453 0.070312c5.8633 1.1172 11.969 1.6523 18.637 1.6523h181.63v-149.54zm94.223-50.191h-71.551v237.88h71.551z" fill="#fcc500"/>
</svg>
