<?xml version="1.0" encoding="UTF-8"?>
<svg width="1200pt" height="1200pt" version="1.1" viewBox="0 0 1200 1200" xmlns="http://www.w3.org/2000/svg">
 <path d="m865.2 696 54-25.199 34.801 74.398 216-100.8-73.199-156c-54 25.199-118.8 2.3984-144-52.801-25.199-54-1.1992-118.8 52.801-144l-73.199-156-217.2 100.8 34.801 74.398-54 25.199-34.801-74.398-631.2 295.2 73.199 156c54-25.199 118.8-2.3984 144 52.801 25.199 54 2.3984 118.8-52.801 144l73.199 156 632.4-295.2zm-567.6-130.8 298.8-139.2 25.199 54-298.8 139.2zm54 117.6 298.8-139.2 25.199 54-298.8 139.2zm80.398 171.6-25.199-54 298.8-139.2 25.199 54zm292.8-459.6 54-25.199 42 90-54 25.199zm69.598 151.2 54-25.199 42 90-52.797 25.199z" fill="#17233d"/>
</svg>
